<svg xmlns="http://www.w3.org/2000/svg" xmlns:xlink="http://www.w3.org/1999/xlink" width="1200" height="1200" viewBox="0 0 512 512" fill="none" class="h-full w-full" id="iconWithBackground"><rect id="r4" width="512" height="512" x="0" y="0" rx="80" fill="#6b7280" stroke="#000000" stroke-width="0" stroke-opacity="100%" paint-order="stroke"/><rect width="512" height="512" x="0" y="0" fill="url(#glare)" rx="80" style="mix-blend-mode: overlay;"/><defs><linearGradient id="linearGradient-iconWithBackground" gradientUnits="userSpaceOnUse" gradientTransform="rotate(0)" style="transform-origin:center center"><stop stop-color="#808080"/><stop offset="1" stop-color="#808080"/></linearGradient><radialGradient id="glare" cx="0" cy="0" r="1" gradientUnits="userSpaceOnUse" gradientTransform="translate(256) rotate(90) scale(512)"><stop stop-color="white"/><stop offset="1" stop-color="white" stop-opacity="0"/></radialGradient><clipPath id="clip"><use xlink:href="#r4"/></clipPath></defs><svg xmlns="http://www.w3.org/2000/svg" width="340" height="340" viewBox="0 0 24 24" x="86" y="86"><path fill="#ffffff" d="M14 9c0-2.04 1.24-3.79 3-4.57V4c0-1.1-.9-2-2-2H4c-1.1 0-1.99.9-1.99 2L2 22l4-4h9c1.1 0 2-.9 2-2v-2.42c-1.76-.78-3-2.53-3-4.58zm-4 5H6v-2h4v2zm3-3H6V9h7v2zm0-3H6V6h7v2z"/><path fill="#ffffff" d="M20 6.18c-.31-.11-.65-.18-1-.18c-1.66 0-3 1.34-3 3s1.34 3 3 3s3-1.34 3-3V3h2V1h-4v5.18z"/></svg></svg>